<?xml version="1.0" encoding="UTF-8" standalone="no"?><!DOCTYPE svg PUBLIC "-//W3C//DTD SVG 1.1//EN" "http://www.w3.org/Graphics/SVG/1.1/DTD/svg11.dtd"><svg width="100%" height="100%" viewBox="0 0 512 512" version="1.1" xmlns="http://www.w3.org/2000/svg" xmlns:xlink="http://www.w3.org/1999/xlink" xml:space="preserve" xmlns:serif="http://www.serif.com/" style="fill-rule:evenodd;clip-rule:evenodd;stroke-linejoin:round;stroke-miterlimit:2;"><rect x="0" y="0" width="512" height="512" style="fill:#d0fc00;"/><g><circle cx="256" cy="289.726" r="122.681" style="fill:#ff5959;"/><path d="M255.999,386.113c-5.356,10.551 -14.286,18.975 -25.195,23.69c8.132,1.698 16.558,2.603 25.195,2.603c8.633,0 17.05,-0.912 25.178,-2.61c-10.901,-4.717 -19.824,-13.138 -25.178,-23.683Z" style="fill:#333e48;fill-rule:nonzero;"/><path d="M255.999,386.113c-5.356,10.551 -14.286,18.975 -25.195,23.69c3.251,0.68 6.55,1.225 9.889,1.643c6.409,-4.704 11.679,-10.868 15.306,-18.012c3.625,7.142 8.893,13.305 15.3,18.006c3.335,-0.419 6.63,-0.966 9.878,-1.644c-10.901,-4.717 -19.824,-13.138 -25.178,-23.683Z" style="fill:#222;fill-opacity:0.3;fill-rule:nonzero;"/><path d="M255.999,167.041c-67.756,0 -122.681,54.927 -122.681,122.682c0,67.755 54.925,122.682 122.681,122.682l0,-245.364Z" style="fill:#222;fill-opacity:0.3;fill-rule:nonzero;"/><path d="M345.251,205.559c-11.769,0.057 -21.292,9.614 -21.292,21.396c0,11.819 9.58,21.399 21.398,21.399c9.242,0 17.116,-5.86 20.109,-14.067c-5.351,-10.544 -12.18,-20.21 -20.215,-28.728Z" style="fill:#333e48;fill-rule:nonzero;"/><circle cx="302.563" cy="307.809" r="21.399" style="fill:#333e48;"/><path d="M330.545,369.58c-11.818,0 -21.399,9.58 -21.399,21.398c0,3.013 0.626,5.879 1.75,8.478c12.572,-6.301 23.911,-14.696 33.557,-24.732c-3.739,-3.204 -8.595,-5.144 -13.908,-5.144Z" style="fill:#333e48;fill-rule:nonzero;"/><path d="M166.747,205.559c11.769,0.057 21.292,9.614 21.292,21.396c0,11.819 -9.58,21.399 -21.398,21.399c-9.242,0 -17.116,-5.86 -20.109,-14.067c5.351,-10.544 12.18,-20.21 20.215,-28.728Z" style="fill:#333e48;fill-rule:nonzero;"/><circle cx="209.436" cy="307.809" r="21.399" style="fill:#333e48;"/><path d="M181.453,369.58c11.818,0 21.398,9.58 21.398,21.398c0,3.013 -0.625,5.879 -1.749,8.478c-12.572,-6.301 -23.911,-14.696 -33.558,-24.732c3.74,-3.204 8.596,-5.144 13.909,-5.144Z" style="fill:#333e48;fill-rule:nonzero;"/><path d="M255.999,99.595c-41.514,0 -75.168,33.653 -75.168,75.169c0,5.701 0.655,11.247 1.858,16.584l0.004,-0.004c23.669,15.321 53.1,21.428 73.306,21.428c20.207,0 49.636,-6.107 73.307,-21.428l0.003,0.006c1.203,-5.339 1.858,-10.885 1.858,-16.586c-0.001,-41.516 -33.654,-75.169 -75.168,-75.169Z" style="fill:#333e48;fill-rule:nonzero;"/><path d="M316.967,130.82c-8.105,0.918 -14.407,7.789 -14.407,16.14c0,8.977 7.278,16.253 16.253,16.253c4.112,0 7.857,-1.54 10.72,-4.059c-2.198,-10.404 -6.553,-20.006 -12.566,-28.334Z" style="fill:#d1d3d3;fill-rule:nonzero;"/><path d="M195.031,130.82c8.105,0.918 14.407,7.789 14.407,16.14c0,8.977 -7.278,16.253 -16.253,16.253c-4.113,0 -7.857,-1.54 -10.72,-4.059c2.198,-10.404 6.552,-20.006 12.566,-28.334Z" style="fill:#d1d3d3;fill-rule:nonzero;"/><path d="M180.832,174.764c0,5.701 0.655,11.247 1.858,16.584l0.004,-0.004c23.669,15.321 53.099,21.428 73.306,21.428l0,-113.177c-41.515,0 -75.168,33.653 -75.168,75.169Z" style="fill:#222;fill-opacity:0.3;fill-rule:nonzero;"/><path d="M302.56,280.441c-15.091,0 -27.368,12.277 -27.368,27.368c0,15.091 12.277,27.369 27.368,27.369c15.091,0 27.369,-12.277 27.369,-27.369c0,-15.091 -12.278,-27.368 -27.369,-27.368Zm0,42.797c-8.507,0 -15.429,-6.92 -15.429,-15.429c0,-8.508 6.921,-15.428 15.429,-15.428c8.507,0 15.429,6.92 15.429,15.428c0,8.508 -6.921,15.429 -15.429,15.429Zm-93.122,-42.797c-15.091,0 -27.369,12.277 -27.369,27.368c0,15.091 12.278,27.369 27.369,27.369c15.09,0 27.368,-12.277 27.368,-27.369c0,-15.091 -12.278,-27.368 -27.368,-27.368Zm0,42.797c-8.507,0 -15.429,-6.92 -15.429,-15.429c0,-8.508 6.921,-15.428 15.429,-15.428c8.507,0 15.428,6.92 15.428,15.428c0,8.508 -6.921,15.429 -15.428,15.429Zm175.155,-29.796c0.035,-1.235 0.057,-2.474 0.057,-3.718c0,-18.557 -3.845,-36.363 -11.414,-53.027c9.881,-7.067 15.822,-18.426 15.822,-30.85c0,-3.297 -2.672,-5.97 -5.97,-5.97c-3.297,0 -5.969,2.673 -5.969,5.97c0,7.896 -3.507,15.16 -9.416,20.041c-8.127,-14.171 -18.999,-26.833 -31.818,-37.01c0.827,-4.68 1.251,-9.411 1.251,-14.114c0,-26.809 -13.071,-50.617 -33.173,-65.4c4.594,-1.884 9.67,-2.429 14.697,-1.476c3.24,0.614 6.363,-1.514 6.978,-4.754c0.615,-3.238 -1.514,-6.363 -4.753,-6.977c-10.079,-1.911 -20.292,0.288 -28.616,6.039c-10.922,-5.479 -23.241,-8.571 -36.27,-8.571c-13.03,0 -25.349,3.092 -36.269,8.573c-8.323,-5.752 -18.538,-7.951 -28.616,-6.04c-3.238,0.614 -5.367,3.738 -4.753,6.978c0.615,3.239 3.738,5.367 6.978,4.753c5.027,-0.955 10.104,-0.409 14.697,1.475c-20.101,14.782 -33.173,38.591 -33.173,65.4c0,4.702 0.424,9.434 1.25,14.114c-12.818,10.176 -23.69,22.839 -31.818,37.01c-5.908,-4.88 -9.416,-12.144 -9.416,-20.041c0,-3.297 -2.673,-5.97 -5.97,-5.97c-3.298,0 -5.97,2.673 -5.97,5.97c0,12.424 5.942,23.783 15.823,30.85c-7.57,16.665 -11.414,34.47 -11.414,53.027c0,1.243 0.022,2.482 0.057,3.718c-8.859,7.184 -14.069,17.961 -14.069,29.483c0,3.297 2.672,5.97 5.97,5.97c3.298,0 5.97,-2.673 5.97,-5.97c0,-4.734 1.289,-9.283 3.623,-13.235c3.198,20.438 11.228,39.293 22.875,55.363c-7.619,7.123 -12.039,17.099 -12.039,27.72c0,3.297 2.672,5.97 5.969,5.97c3.298,0 5.97,-2.673 5.97,-5.97c0,-6.96 2.77,-13.517 7.576,-18.349c23.598,26.921 58.22,43.95 96.748,43.95c38.528,0 73.149,-17.028 96.748,-43.949c4.806,4.832 7.576,11.388 7.576,18.348c0,3.297 2.672,5.97 5.97,5.97c3.297,0 5.969,-2.673 5.969,-5.97c0,-10.622 -4.419,-20.597 -12.039,-27.72c11.649,-16.07 19.678,-34.925 22.876,-55.362c2.333,3.95 3.622,8.5 3.622,13.233c0,3.297 2.672,5.97 5.97,5.97c3.298,0 5.97,-2.673 5.97,-5.97c0,-11.521 -5.209,-22.299 -14.067,-29.482Zm-41.765,-81.686c6.214,6.917 11.6,14.567 15.997,22.727c-2.695,4.806 -7.841,7.901 -13.468,7.901c-8.507,0 -15.428,-6.921 -15.428,-15.429c0,-7.628 5.599,-13.984 12.899,-15.199Zm-28.429,-74.073c3.656,5.739 6.487,12.05 8.333,18.765c-1.236,0.515 -2.564,0.795 -3.919,0.795c-5.671,0 -10.283,-4.612 -10.283,-10.283c0,-4.069 2.373,-7.619 5.869,-9.277Zm-116.8,0c3.496,1.658 5.87,5.208 5.87,9.277c0,5.671 -4.613,10.283 -10.283,10.283c-1.355,0 -2.683,-0.28 -3.919,-0.795c1.845,-6.716 4.676,-13.027 8.332,-18.765Zm-10.496,30.643c1.964,0.562 4.009,0.856 6.082,0.856c12.253,0 22.223,-9.968 22.223,-22.222c0,-7.904 -4.14,-14.913 -10.464,-18.856c12.662,-13.843 30.862,-22.54 51.055,-22.54c20.194,0 38.394,8.697 51.056,22.539c-6.324,3.943 -10.464,10.953 -10.464,18.856c0,12.254 9.968,22.222 22.222,22.222c2.073,0 4.119,-0.293 6.083,-0.855c0.196,2.12 0.302,4.266 0.302,6.436c0,4.291 -0.409,8.613 -1.216,12.882c-22.963,14.108 -50.774,19.157 -67.981,19.157c-17.209,0 -45.019,-5.048 -67.981,-19.157c-0.809,-4.269 -1.216,-8.593 -1.216,-12.882c-0.002,-2.17 0.102,-4.316 0.299,-6.436Zm-17.933,43.43c7.301,1.215 12.899,7.571 12.899,15.2c0,8.507 -6.92,15.428 -15.428,15.428c-5.627,0 -10.772,-3.094 -13.469,-7.9c4.398,-8.161 9.786,-15.81 15.998,-22.728Zm8.375,164.304c1.268,-0.333 2.579,-0.51 3.907,-0.51c8.278,0 15.033,6.556 15.394,14.746c-6.92,-4.086 -13.389,-8.859 -19.301,-14.236Zm52.592,27.482c-7.581,-1.721 -14.884,-4.181 -21.828,-7.303c0.337,-1.722 0.512,-3.478 0.512,-5.26c0,-15.092 -12.278,-27.369 -27.369,-27.369c-4.546,0 -8.992,1.14 -12.947,3.264c-18.172,-20.584 -29.217,-47.599 -29.217,-77.151c0,-15.03 2.775,-29.514 8.251,-43.201c5.016,4.881 11.829,7.801 19.102,7.801c15.09,0 27.368,-12.277 27.368,-27.369c0,-10.775 -6.291,-20.138 -15.392,-24.595c1.454,-1.291 2.944,-2.541 4.461,-3.757c22.474,13.434 48.331,19.078 67.375,19.998l0,165.229c-4.473,8.584 -11.625,15.516 -20.316,19.713Zm25.862,2.893c-2.778,0 -5.533,-0.104 -8.263,-0.296c3.051,-2.633 5.826,-5.581 8.263,-8.805c2.436,3.223 5.211,6.172 8.262,8.805c-2.73,0.192 -5.484,0.296 -8.262,0.296Zm59.152,-16.139c0.36,-8.19 7.116,-14.747 15.394,-14.747c1.328,0 2.641,0.178 3.907,0.51c-5.911,5.378 -12.38,10.151 -19.301,14.237Zm28.342,-23.421c-3.955,-2.126 -8.401,-3.265 -12.948,-3.265c-15.091,0 -27.368,12.277 -27.368,27.368c0,1.782 0.175,3.539 0.511,5.261c-6.945,3.122 -14.247,5.582 -21.829,7.303c-8.161,-3.942 -14.967,-10.296 -19.469,-18.161l0,-166.824c18.959,-1.044 44.386,-6.716 66.53,-19.953c1.517,1.216 3.006,2.464 4.461,3.756c-9.101,4.457 -15.393,13.821 -15.393,24.596c0,15.09 12.277,27.368 27.368,27.368c7.273,0 14.086,-2.92 19.101,-7.801c5.477,13.686 8.253,28.171 8.253,43.201c0.001,29.551 -11.045,56.567 -29.217,77.151Z" style="fill:#1e252b;fill-rule:nonzero;"/></g></svg>