<?xml version="1.0" encoding="iso-8859-1"?>
<!-- Generator: Adobe Illustrator 19.0.0, SVG Export Plug-In . SVG Version: 6.00 Build 0)  -->
<svg version="1.1" id="Layer_1" xmlns="http://www.w3.org/2000/svg" xmlns:xlink="http://www.w3.org/1999/xlink" x="0px" y="0px"
	 viewBox="0 0 511.999 511.999" style="enable-background:new 0 0 511.999 511.999;" xml:space="preserve">
<circle style="fill:#FF5959;" cx="256.001" cy="309.172" r="193.419"/>
<path style="fill:#333E48;" d="M255.999,461.137c-8.444,16.634-22.523,29.916-39.722,37.349c12.821,2.678,26.105,4.104,39.722,4.104
	c13.612,0,26.881-1.437,39.696-4.114C278.509,491.039,264.44,477.762,255.999,461.137z"/>
<g>
	<path style="opacity:0.3;fill:#222222;enable-background:new    ;" d="M255.999,461.137c-8.444,16.634-22.523,29.916-39.722,37.349
		c5.125,1.072,10.327,1.931,15.591,2.59c10.105-7.415,18.413-17.133,24.131-28.397c5.716,11.26,14.021,20.976,24.122,28.389
		c5.258-0.661,10.453-1.523,15.575-2.593C278.509,491.039,264.44,477.762,255.999,461.137z"/>
	<path style="opacity:0.3;fill:#222222;enable-background:new    ;" d="M255.999,115.748c-106.823,0-193.419,86.597-193.419,193.42
		s86.596,193.42,193.419,193.42V115.748z"/>
</g>
<g>
	<path style="fill:#333E48;" d="M396.714,176.475c-18.555,0.09-33.569,15.157-33.569,33.733c0,18.633,15.104,33.737,33.737,33.737
		c14.571,0,26.984-9.239,31.703-22.178C420.149,205.144,409.383,189.904,396.714,176.475z"/>
	<circle style="fill:#333E48;" cx="329.413" cy="337.683" r="33.737"/>
	<path style="fill:#333E48;" d="M373.529,435.07c-18.632,0-33.737,15.104-33.737,33.737c0,4.75,0.986,9.269,2.758,13.367
		c19.821-9.935,37.699-23.171,52.907-38.994C389.562,438.129,381.906,435.07,373.529,435.07z"/>
	<path style="fill:#333E48;" d="M115.285,176.475c18.555,0.09,33.569,15.157,33.569,33.733c0,18.633-15.104,33.737-33.737,33.737
		c-14.571,0-26.984-9.239-31.703-22.178C91.85,205.144,102.617,189.904,115.285,176.475z"/>
	<circle style="fill:#333E48;" cx="182.589" cy="337.683" r="33.737"/>
	<path style="fill:#333E48;" d="M138.47,435.07c18.633,0,33.737,15.104,33.737,33.737c0,4.75-0.986,9.269-2.758,13.367
		c-19.821-9.935-37.699-23.171-52.907-38.994C122.437,438.129,130.094,435.07,138.47,435.07z"/>
	<path style="fill:#333E48;" d="M255.999,9.412c-65.451,0-118.509,53.058-118.509,118.511c0,8.988,1.033,17.732,2.929,26.147
		l0.006-0.006c37.317,24.154,83.717,33.783,115.575,33.783s78.256-9.629,115.575-33.783l0.005,0.009
		c1.897-8.417,2.93-17.161,2.93-26.15C374.508,62.469,321.45,9.412,255.999,9.412z"/>
</g>
<g>
	<path style="fill:#D1D3D3;" d="M352.122,58.641c-12.779,1.447-22.714,12.281-22.714,25.447c0,14.152,11.474,25.624,25.624,25.624
		c6.484,0,12.388-2.428,16.902-6.4C368.468,86.909,361.602,71.771,352.122,58.641z"/>
	<path style="fill:#D1D3D3;" d="M159.877,58.641c12.779,1.447,22.714,12.281,22.714,25.447c0,14.152-11.474,25.624-25.624,25.624
		c-6.484,0-12.388-2.428-16.902-6.4C143.531,86.909,150.396,71.771,159.877,58.641z"/>
</g>
<path style="opacity:0.3;fill:#222222;enable-background:new    ;" d="M137.491,127.923c0,8.988,1.033,17.732,2.929,26.147
	l0.006-0.006c37.317,24.154,83.717,33.783,115.575,33.783V9.412C190.548,9.412,137.491,62.469,137.491,127.923z"/>
<path style="fill:#1E252B;" d="M329.408,294.534c-23.792,0-43.149,19.356-43.149,43.149c0,23.792,19.357,43.149,43.149,43.149
	c23.792,0,43.149-19.356,43.149-43.149C372.557,313.89,353.2,294.534,329.408,294.534z M329.408,362.008
	c-13.412,0-24.325-10.911-24.325-24.325c0-13.414,10.911-24.325,24.325-24.325c13.412,0,24.325,10.911,24.325,24.325
	C353.733,351.096,342.821,362.008,329.408,362.008z M182.591,294.534c-23.792,0-43.149,19.356-43.149,43.149
	c0,23.792,19.357,43.149,43.149,43.149s43.149-19.356,43.149-43.149C225.74,313.89,206.383,294.534,182.591,294.534z
	 M182.591,362.008c-13.412,0-24.325-10.911-24.325-24.325c0-13.414,10.911-24.325,24.325-24.325
	c13.412,0,24.325,10.911,24.325,24.325C206.916,351.096,196.004,362.008,182.591,362.008z M458.741,315.032
	c0.055-1.948,0.09-3.901,0.09-5.863c0-29.257-6.062-57.329-17.995-83.602c15.578-11.141,24.945-29.05,24.945-48.638
	c0-5.198-4.213-9.412-9.412-9.412s-9.412,4.214-9.412,9.412c0,12.449-5.529,23.902-14.844,31.596
	c-12.814-22.342-29.955-42.305-50.165-58.349c1.304-7.379,1.973-14.838,1.973-22.253c0-42.267-20.609-79.803-52.301-103.11
	c7.243-2.97,15.246-3.829,23.171-2.327c5.108,0.968,10.032-2.386,11.002-7.494c0.969-5.106-2.387-10.032-7.494-11.001
	c-15.89-3.013-31.993,0.454-45.116,9.522C295.963,4.874,276.541,0,255.999,0s-39.964,4.874-57.181,13.515
	c-13.123-9.068-29.227-12.535-45.116-9.522c-5.106,0.968-8.462,5.893-7.494,11.001c0.969,5.107,5.894,8.462,11.002,7.494
	c7.926-1.505,15.93-0.645,23.171,2.325c-31.691,23.306-52.301,60.843-52.301,103.11c0,7.414,0.669,14.874,1.971,22.252
	c-20.209,16.044-37.35,36.008-50.164,58.351c-9.315-7.694-14.846-19.147-14.846-31.597c0-5.198-4.214-9.412-9.412-9.412
	c-5.199,0-9.412,4.214-9.412,9.412c0,19.588,9.368,37.497,24.946,48.638c-11.934,26.274-17.995,54.346-17.995,83.602
	c0,1.961,0.035,3.914,0.09,5.863c-13.967,11.326-22.181,28.317-22.181,46.483c0,5.198,4.213,9.412,9.412,9.412
	s9.412-4.214,9.412-9.412c0-7.464,2.032-14.637,5.712-20.867c5.043,32.222,17.703,61.949,36.066,87.286
	c-12.013,11.229-18.982,26.957-18.982,43.703c0,5.198,4.213,9.412,9.412,9.412c5.199,0,9.412-4.214,9.412-9.412
	c0-10.973,4.366-21.311,11.944-28.929c37.204,42.444,91.789,69.291,152.533,69.291s115.327-26.846,152.533-69.29
	c7.578,7.619,11.944,17.955,11.944,28.928c0,5.198,4.213,9.412,9.412,9.412c5.199,0,9.412-4.214,9.412-9.412
	c0-16.747-6.967-32.474-18.982-43.703c18.366-25.337,31.025-55.063,36.067-87.285c3.679,6.228,5.711,13.401,5.711,20.864
	c0,5.198,4.213,9.412,9.412,9.412s9.412-4.214,9.412-9.412C480.919,343.349,472.706,326.356,458.741,315.032z M392.895,186.245
	c9.796,10.906,18.288,22.966,25.221,35.831c-4.25,7.578-12.363,12.457-21.234,12.457c-13.412,0-24.325-10.911-24.325-24.325
	C372.557,198.181,381.385,188.16,392.895,186.245z M348.073,69.462c5.764,9.047,10.228,18.997,13.138,29.584
	c-1.949,0.813-4.043,1.254-6.179,1.254c-8.94,0-16.212-7.272-16.212-16.212C338.82,77.673,342.562,72.076,348.073,69.462z
	 M163.926,69.462c5.512,2.614,9.254,8.211,9.254,14.626c0,8.94-7.272,16.212-16.212,16.212c-2.136,0-4.23-0.442-6.179-1.254
	C153.698,88.458,158.162,78.508,163.926,69.462z M147.378,117.774c3.096,0.886,6.32,1.349,9.589,1.349
	c19.318,0,35.036-15.716,35.036-35.036c0-12.461-6.526-23.512-16.497-29.728c19.963-21.825,48.657-35.536,80.494-35.536
	s60.531,13.711,80.494,35.535c-9.97,6.216-16.497,17.268-16.497,29.728c0,19.319,15.716,35.036,35.036,35.036
	c3.268,0,6.493-0.463,9.589-1.349c0.31,3.342,0.477,6.726,0.477,10.148c0,6.764-0.645,13.578-1.918,20.309
	c-36.203,22.242-80.049,30.203-107.179,30.203c-27.131,0-70.976-7.959-107.179-30.203c-1.274-6.731-1.917-13.547-1.917-20.309
	C146.903,124.499,147.068,121.116,147.378,117.774z M119.105,186.245c11.51,1.916,20.337,11.937,20.337,23.964
	c0,13.412-10.911,24.325-24.325,24.325c-8.871,0-16.983-4.878-21.234-12.456C100.816,209.212,109.311,197.152,119.105,186.245z
	 M132.309,445.287c1.999-0.525,4.066-0.804,6.16-0.804c13.05,0,23.701,10.337,24.27,23.248
	C151.828,461.289,141.63,453.765,132.309,445.287z M215.226,488.616c-11.952-2.714-23.466-6.592-34.415-11.514
	c0.531-2.716,0.807-5.484,0.807-8.294c0-23.793-19.357-43.149-43.149-43.149c-7.167,0-14.177,1.796-20.412,5.146
	c-28.651-32.453-46.065-75.046-46.065-121.637c0-23.696,4.376-46.532,13.01-68.11c7.908,7.694,18.649,12.298,30.115,12.298
	c23.792,0,43.149-19.356,43.149-43.149c0-16.988-9.918-31.75-24.267-38.777c2.293-2.035,4.641-4.006,7.033-5.923
	c35.432,21.18,76.199,30.078,106.223,31.528v260.501C240.203,471.069,228.927,481.999,215.226,488.616z M255.999,493.176
	c-4.38,0-8.722-0.164-13.027-0.467c4.811-4.151,9.186-8.799,13.027-13.882c3.841,5.082,8.216,9.731,13.027,13.882
	C264.722,493.012,260.379,493.176,255.999,493.176z M349.259,467.732c0.568-12.913,11.219-23.25,24.27-23.25
	c2.094,0,4.163,0.28,6.16,0.804C370.37,453.765,360.171,461.29,349.259,467.732z M393.943,430.806
	c-6.236-3.352-13.246-5.148-20.414-5.148c-23.792,0-43.149,19.356-43.149,43.149c0,2.81,0.276,5.579,0.806,8.294
	c-10.949,4.922-22.462,8.801-34.415,11.514c-12.867-6.214-23.597-16.232-30.696-28.633V196.968
	c29.891-1.646,69.98-10.589,104.892-31.459c2.391,1.917,4.74,3.886,7.033,5.922c-14.349,7.027-24.269,21.79-24.269,38.778
	c0,23.792,19.357,43.149,43.149,43.149c11.466,0,22.208-4.604,30.115-12.299c8.634,21.577,13.011,44.414,13.011,68.11
	C440.008,355.759,422.593,398.353,393.943,430.806z"/>
<g>
</g>
<g>
</g>
<g>
</g>
<g>
</g>
<g>
</g>
<g>
</g>
<g>
</g>
<g>
</g>
<g>
</g>
<g>
</g>
<g>
</g>
<g>
</g>
<g>
</g>
<g>
</g>
<g>
</g>
</svg>
