<?xml version="1.0" encoding="UTF-8" standalone="no"?><!DOCTYPE svg PUBLIC "-//W3C//DTD SVG 1.1//EN" "http://www.w3.org/Graphics/SVG/1.1/DTD/svg11.dtd"><svg width="100%" height="100%" viewBox="0 0 2134 2134" version="1.1" xmlns="http://www.w3.org/2000/svg" xmlns:xlink="http://www.w3.org/1999/xlink" xml:space="preserve" xmlns:serif="http://www.serif.com/" style="fill-rule:evenodd;clip-rule:evenodd;stroke-linejoin:round;stroke-miterlimit:2;"><rect x="0" y="0" width="2133.33" height="2133.33" style="fill:#fff;"/><circle cx="1066.67" cy="1225.17" r="576.583" style="fill:#ff5959;"/><path d="M1066.66,1678.18c-25.171,49.586 -67.141,89.18 -118.411,111.338c38.219,7.983 77.819,12.234 118.411,12.234c40.578,0 80.133,-4.284 118.334,-12.264c-51.231,-22.17 -93.171,-61.749 -118.334,-111.308Z" style="fill:#333e48;fill-rule:nonzero;"/><g><path d="M1066.66,1678.18c-25.171,49.586 -67.141,89.18 -118.411,111.338c15.278,3.195 30.785,5.756 46.477,7.72c30.123,-22.104 54.889,-51.073 71.934,-84.651c17.04,33.566 41.797,62.529 71.908,84.628c15.674,-1.971 31.161,-4.54 46.429,-7.73c-51.234,-22.167 -93.174,-61.746 -118.337,-111.305Z" style="fill:#222;fill-opacity:0.3;fill-rule:nonzero;"/><path d="M1066.66,648.574c-318.439,0 -576.582,258.146 -576.582,576.586c0,318.44 258.143,576.586 576.582,576.586l0,-1153.17Z" style="fill:#222;fill-opacity:0.3;fill-rule:nonzero;"/></g><g><path d="M1486.13,829.602c-55.312,0.268 -100.069,45.183 -100.069,100.558c0,55.545 45.025,100.57 100.57,100.57c43.436,0 80.439,-27.541 94.507,-66.113c-25.148,-49.553 -57.241,-94.983 -95.008,-135.015Z" style="fill:#333e48;fill-rule:nonzero;"/><circle cx="1285.51" cy="1310.16" r="100.57" style="fill:#333e48;"/><path d="M1417.02,1600.47c-55.542,0 -100.57,45.025 -100.57,100.57c0,14.16 2.939,27.631 8.221,39.848c59.087,-29.617 112.381,-69.073 157.716,-116.242c-17.573,-15.057 -40.396,-24.176 -65.367,-24.176Z" style="fill:#333e48;fill-rule:nonzero;"/><path d="M647.192,829.602c55.313,0.268 100.07,45.183 100.07,100.558c0,55.545 -45.025,100.57 -100.57,100.57c-43.437,0 -80.44,-27.541 -94.507,-66.113c25.148,-49.553 57.244,-94.983 95.007,-135.015Z" style="fill:#333e48;fill-rule:nonzero;"/><circle cx="847.826" cy="1310.16" r="100.57" style="fill:#333e48;"/><path d="M716.307,1600.47c55.545,0 100.57,45.025 100.57,100.57c0,14.16 -2.939,27.631 -8.222,39.848c-59.086,-29.617 -112.38,-69.073 -157.715,-116.242c17.573,-15.057 40.398,-24.176 65.367,-24.176Z" style="fill:#333e48;fill-rule:nonzero;"/><path d="M1066.66,331.586c-195.109,0 -353.275,158.167 -353.275,353.282c0,26.793 3.079,52.859 8.731,77.944l0.018,-0.017c111.242,72.003 249.56,100.707 344.529,100.707c94.969,0 233.282,-28.704 344.53,-100.707l0.015,0.026c5.655,-25.091 8.734,-51.157 8.734,-77.953c-0.006,-195.118 -158.172,-353.282 -353.282,-353.282Z" style="fill:#333e48;fill-rule:nonzero;"/></g><g><path d="M1353.2,478.338c-38.094,4.314 -67.71,36.61 -67.71,75.858c0,42.187 34.204,76.385 76.385,76.385c19.329,0 36.929,-7.238 50.385,-19.078c-10.332,-48.898 -30.8,-94.024 -59.06,-133.165Z" style="fill:#d1d3d3;fill-rule:nonzero;"/><path d="M780.121,478.338c38.095,4.314 67.711,36.61 67.711,75.858c0,42.187 -34.204,76.385 -76.385,76.385c-19.329,0 -36.929,-7.238 -50.385,-19.078c10.332,-48.898 30.796,-94.024 59.059,-133.165Z" style="fill:#d1d3d3;fill-rule:nonzero;"/></g><path d="M713.389,684.868c0,26.793 3.079,52.859 8.731,77.944l0.018,-0.017c111.242,72.003 249.56,100.707 344.529,100.707l0,-531.916c-195.115,0 -353.278,158.164 -353.278,353.282Z" style="fill:#222;fill-opacity:0.3;fill-rule:nonzero;"/><path d="M1285.49,1181.54c-70.924,0 -128.628,57.7 -128.628,128.627c0,70.924 57.704,128.628 128.628,128.628c70.924,0 128.627,-57.701 128.627,-128.628c0,-70.927 -57.703,-128.627 -128.627,-128.627Zm0,201.14c-39.981,0 -72.513,-32.525 -72.513,-72.513c0,-39.987 32.526,-72.513 72.513,-72.513c39.981,0 72.513,32.526 72.513,72.513c0,39.985 -32.529,72.513 -72.513,72.513Zm-437.662,-201.14c-70.924,0 -128.627,57.7 -128.627,128.627c0,70.924 57.703,128.628 128.627,128.628c70.924,0 128.627,-57.701 128.627,-128.628c0,-70.927 -57.703,-128.627 -128.627,-128.627Zm0,201.14c-39.981,0 -72.513,-32.525 -72.513,-72.513c0,-39.987 32.526,-72.513 72.513,-72.513c39.981,0 72.513,32.526 72.513,72.513c0,39.985 -32.529,72.513 -72.513,72.513Zm823.204,-140.035c0.164,-5.807 0.268,-11.629 0.268,-17.478c0,-87.215 -18.071,-170.898 -53.643,-249.218c46.438,-33.211 74.361,-86.598 74.361,-144.99c0,-15.495 -12.559,-28.057 -28.057,-28.057c-15.498,0 -28.057,12.562 -28.057,28.057c0,37.111 -16.482,71.252 -44.25,94.188c-38.199,-66.602 -89.296,-126.111 -149.542,-173.939c3.887,-21.996 5.881,-44.232 5.881,-66.336c0,-125.998 -61.435,-237.893 -155.909,-307.371c21.591,-8.854 45.448,-11.414 69.073,-6.937c15.227,2.886 29.905,-7.113 32.797,-22.34c2.888,-15.221 -7.116,-29.905 -22.34,-32.794c-47.368,-8.981 -95.371,1.354 -134.491,28.386c-51.333,-25.753 -109.23,-40.283 -170.466,-40.283c-61.235,0 -119.133,14.53 -170.456,40.288c-39.12,-27.031 -87.126,-37.366 -134.491,-28.385c-15.221,2.886 -25.226,17.567 -22.34,32.794c2.889,15.224 17.57,25.226 32.797,22.34c23.627,-4.486 47.487,-1.923 69.073,6.931c-94.471,69.475 -155.91,181.373 -155.91,307.371c0,22.101 1.995,44.34 5.876,66.333c-60.243,47.828 -111.341,107.34 -149.539,173.945c-27.768,-22.936 -44.256,-57.077 -44.256,-94.191c0,-15.495 -12.562,-28.057 -28.057,-28.057c-15.499,0 -28.058,12.562 -28.058,28.057c0,58.392 27.927,111.779 74.365,144.99c-35.576,78.323 -53.644,162.006 -53.644,249.218c0,5.846 0.105,11.668 0.269,17.478c-41.636,33.763 -66.122,84.413 -66.122,138.566c0,15.495 12.559,28.057 28.057,28.057c15.499,0 28.058,-12.562 28.058,-28.057c0,-22.251 6.057,-43.633 17.027,-62.205c15.033,96.054 52.773,184.67 107.513,260.2c-35.811,33.474 -56.586,80.359 -56.586,130.279c0,15.495 12.559,28.057 28.058,28.057c15.498,0 28.057,-12.562 28.057,-28.057c0,-32.711 13.015,-63.528 35.605,-86.238c110.905,126.526 273.623,206.557 454.701,206.557c181.078,0 343.79,-80.028 454.702,-206.554c22.59,22.712 35.605,53.524 35.605,86.235c0,15.495 12.559,28.057 28.057,28.057c15.498,0 28.057,-12.562 28.057,-28.057c0,-49.923 -20.768,-96.805 -56.585,-130.279c54.749,-75.53 92.485,-164.143 107.516,-260.197c10.967,18.566 17.024,39.948 17.024,62.196c0,15.495 12.559,28.057 28.057,28.057c15.499,0 28.058,-12.562 28.058,-28.057c0,-54.147 -24.483,-104.803 -66.113,-138.56Zm-196.287,-383.915c29.202,32.511 54.516,68.462 75.184,106.813c-12.67,22.59 -36.855,37.134 -63.299,37.134c-39.981,0 -72.513,-32.526 -72.513,-72.513c0,-35.853 26.316,-65.725 60.628,-71.434Zm-133.615,-348.13c17.183,26.969 30.49,56.63 39.165,88.19c-5.81,2.423 -12.053,3.738 -18.42,3.738c-26.65,0 -48.328,-21.678 -48.328,-48.328c0,-19.123 11.155,-35.808 27.583,-43.6Zm-548.943,0c16.432,7.792 27.587,24.477 27.587,43.6c0,26.65 -21.678,48.328 -48.328,48.328c-6.368,0 -12.61,-1.318 -18.42,-3.738c8.672,-31.563 21.979,-61.224 39.161,-88.19Zm-49.329,144.018c9.229,2.641 18.84,4.021 28.585,4.021c57.587,0 104.442,-46.849 104.442,-104.442c0,-37.146 -19.454,-70.089 -49.178,-88.619c59.51,-65.061 145.047,-105.933 239.953,-105.933c94.906,0 180.443,40.872 239.953,105.93c-29.72,18.53 -49.177,51.476 -49.177,88.619c0,57.59 46.849,104.442 104.442,104.442c9.742,0 19.356,-1.38 28.585,-4.021c0.924,9.962 1.422,20.05 1.422,30.251c0,20.164 -1.923,40.476 -5.718,60.541c-107.921,66.304 -238.626,90.036 -319.501,90.036c-80.877,0 -211.579,-23.726 -319.501,-90.036c-3.797,-20.065 -5.714,-40.383 -5.714,-60.541c-0.009,-10.201 0.483,-20.286 1.407,-30.248Zm-84.282,204.112c34.311,5.712 60.625,35.584 60.625,71.437c0,39.981 -32.526,72.513 -72.513,72.513c-26.445,0 -50.627,-14.541 -63.299,-37.132c20.667,-38.353 45.991,-74.304 75.187,-106.818Zm39.361,772.205c5.959,-1.565 12.121,-2.396 18.363,-2.396c38.902,0 70.653,30.814 72.349,69.302c-32.526,-19.204 -62.926,-41.633 -90.712,-66.906Zm247.176,129.164c-35.629,-8.09 -69.952,-19.651 -102.591,-34.323c1.583,-8.097 2.405,-16.348 2.405,-24.725c0,-70.927 -57.703,-128.627 -128.627,-128.627c-21.365,0 -42.262,5.354 -60.848,15.34c-85.409,-96.742 -137.32,-223.712 -137.32,-362.6c0,-70.638 13.045,-138.712 38.783,-203.036c23.573,22.936 55.592,36.66 89.773,36.66c70.924,0 128.627,-57.7 128.627,-128.627c0,-50.641 -29.566,-94.647 -72.34,-115.594c6.835,-6.067 13.835,-11.942 20.965,-17.657c105.623,63.138 227.15,89.663 316.651,93.985l0,776.555c-21.022,40.341 -54.635,72.924 -95.478,92.649Zm121.544,13.594c-13.056,0 -26,-0.489 -38.833,-1.393c14.341,-12.374 27.383,-26.229 38.833,-41.382c11.45,15.15 24.492,29.008 38.834,41.382c-12.83,0.904 -25.777,1.393 -38.834,1.393Zm278.009,-75.849c1.693,-38.494 33.444,-69.308 72.349,-69.308c6.242,0 12.41,0.834 18.363,2.396c-27.78,25.276 -58.184,47.708 -90.712,66.912Zm133.203,-110.077c-18.59,-9.992 -39.487,-15.346 -60.854,-15.346c-70.924,0 -128.628,57.7 -128.628,128.627c0,8.377 0.823,16.631 2.403,24.725c-32.639,14.672 -66.959,26.236 -102.591,34.323c-38.357,-18.524 -70.343,-48.387 -91.505,-85.355l0,-784.046c89.105,-4.906 208.611,-31.565 312.683,-93.779c7.128,5.715 14.13,11.584 20.966,17.654c-42.775,20.947 -72.346,64.956 -72.346,115.597c0,70.924 57.703,128.627 128.627,128.627c34.18,0 66.202,-13.724 89.773,-36.663c25.738,64.321 38.786,132.398 38.786,203.036c0.006,138.885 -51.908,265.858 -137.314,362.6Z" style="fill:#1e252b;fill-rule:nonzero;"/></svg>